<?xml version="1.0" encoding="utf-8"?>
<!-- Generator: Adobe Illustrator 15.0.0, SVG Export Plug-In . SVG Version: 6.00 Build 0)  -->
<!DOCTYPE svg PUBLIC "-//W3C//DTD SVG 1.1//EN" "http://www.w3.org/Graphics/SVG/1.1/DTD/svg11.dtd">
<svg version="1.1" id="Layer_1" xmlns="http://www.w3.org/2000/svg" xmlns:xlink="http://www.w3.org/1999/xlink" x="0px" y="0px"
	 width="100px" height="100px" viewBox="0 0 100 100" enable-background="new 0 0 100 100" xml:space="preserve">
<path fill="#BCBEC0" d="M97.876,60.038c0.308,6.149-1.796,14.438-8.258,20.116c-6.132,5.916-16.622,9.226-25.456,10.927
	c-9.439,2-18.88,3.998-28.319,5.997c-8.837,2.27-19.704,2.052-25.805-3.961c-6.495-5.583-8.219-16.961-7.909-27.081
	c0-10.688,0-21.381,0-32.072c-0.31-10.12,1.415-21.5,7.909-27.083c6.101-6.012,16.968-6.229,25.805-3.959
	c9.439,1.999,18.88,3.999,28.319,5.998c8.834,1.702,19.324,5.009,25.456,10.927c6.462,5.679,8.565,13.967,8.258,20.116
	C97.876,46.655,97.876,53.348,97.876,60.038z"/>
</svg>
